<?xml version="1.0" standalone="no"?>
<!DOCTYPE svg PUBLIC "-//W3C//DTD SVG 20010904//EN"
 "http://www.w3.org/TR/2001/REC-SVG-20010904/DTD/svg10.dtd">
<svg version="1.0" xmlns="http://www.w3.org/2000/svg"
 width="430.000000pt" height="200.000000pt" viewBox="0 0 430.000000 200.000000"
 preserveAspectRatio="xMidYMid meet">

<g transform="translate(0.000000,200.000000) scale(0.100000,-0.100000)"
fill="#000000" stroke="none">
<path d="M2085 1995 c-5 -2 -140 -22 -300 -44 -159 -22 -434 -61 -610 -85
-176 -25 -473 -66 -660 -92 l-340 -47 -42 -40 c-48 -46 -99 -137 -119 -211
-26 -98 -12 -233 38 -348 l21 -50 1079 -539 1079 -540 112 25 c152 34 842 185
1407 307 256 56 475 108 488 116 31 19 62 72 62 105 0 34 -48 90 -105 124 -60
35 -88 96 -89 189 0 93 16 139 55 155 68 29 77 85 22 139 -34 33 -150 82
-1043 439 -553 221 -1014 402 -1025 401 -11 0 -24 -2 -30 -4z m-405 -270 c345
46 311 44 358 22 23 -12 42 -24 42 -28 0 -3 -92 -19 -205 -34 -112 -15 -203
-30 -200 -34 2 -3 128 -69 279 -146 152 -77 276 -143 276 -146 0 -3 -17 -11
-37 -17 -37 -11 -43 -9 -343 143 l-306 154 -203 -30 -202 -29 -51 26 c-27 14
-48 28 -45 31 3 2 88 16 189 29 101 13 188 26 193 28 6 2 -3 10 -20 18 -16 7
-55 27 -85 43 l-55 29 50 12 c50 11 51 11 145 -38 l96 -49 124 16z m-1242
-156 c131 -67 264 -136 297 -154 33 -18 146 -76 250 -130 105 -54 309 -160
455 -235 146 -75 364 -188 485 -251 l220 -113 175 36 c199 42 1351 286 1658
351 168 36 205 41 209 30 3 -8 1 -19 -4 -24 -6 -6 -169 -44 -364 -85 -195 -41
-482 -102 -639 -135 -157 -33 -445 -94 -640 -135 -195 -41 -358 -78 -362 -82
-4 -4 -13 -49 -19 -100 -22 -161 15 -365 76 -422 l24 -23 118 26 c65 15 208
47 318 71 613 139 1520 336 1541 336 30 0 31 -20 2 -47 -21 -19 -380 -103
-1068 -249 -36 -7 -260 -56 -499 -109 -393 -86 -436 -94 -456 -81 -15 10 -33
48 -58 123 -53 160 -59 208 -45 338 6 60 12 120 12 133 1 25 20 15 -984 524
-272 138 -522 265 -555 283 -33 18 -143 74 -244 124 -167 84 -182 93 -165 106
11 8 21 15 22 15 2 0 110 -55 240 -121z m632 -402 c689 -351 1005 -512 1025
-524 16 -10 18 -15 7 -37 l-12 -26 -117 59 c-191 95 -335 162 -339 158 -12
-12 -24 -135 -24 -243 l0 -121 239 -123 c231 -118 240 -125 280 -178 22 -31
39 -58 37 -60 -7 -7 -2018 1000 -2021 1012 -10 35 -13 74 -5 86 8 12 18 10 63
-12 l53 -26 1 117 c0 71 6 137 15 169 l15 53 -54 27 c-53 26 -54 27 -48 62 4
19 9 38 12 43 2 4 118 -50 256 -121 139 -71 416 -213 617 -315z m2585 -322
c-16 -8 -36 -14 -44 -15 -8 0 -12 -3 -9 -6 4 -3 68 4 142 16 75 12 141 20 147
18 6 -2 -58 -26 -143 -53 -84 -26 -157 -52 -161 -56 -5 -4 51 4 125 17 230 41
216 34 -110 -57 -122 -34 -221 -63 -219 -65 2 -2 104 12 226 32 123 19 225 34
226 32 2 -2 -39 -19 -90 -38 -52 -18 -93 -36 -91 -38 2 -2 37 1 77 7 40 5 75
9 77 7 1 -2 -46 -22 -105 -44 -59 -23 -103 -41 -97 -41 7 -1 56 8 109 19 54
11 100 18 102 16 2 -2 -53 -23 -123 -47 -70 -24 -122 -45 -116 -47 6 -2 72 9
147 23 76 14 141 25 146 23 5 -2 -36 -16 -91 -32 -55 -16 -99 -30 -97 -32 1
-2 65 3 142 11 77 7 141 12 143 10 4 -4 -3 -5 -707 -160 -288 -64 -526 -113
-529 -110 -3 3 3 5 14 6 10 0 15 2 9 5 -5 2 -72 -4 -147 -14 -75 -10 -135 -16
-133 -12 3 4 32 15 65 24 33 9 60 19 60 22 0 3 -24 3 -52 -1 -72 -10 -58 0 42
30 46 14 85 27 88 29 2 3 -22 3 -54 1 -58 -4 -58 -4 31 18 128 33 130 36 30
31 l-90 -3 210 53 c116 30 207 55 203 55 -4 1 -69 -8 -144 -19 -75 -11 -139
-18 -141 -16 -2 2 16 12 42 21 25 10 44 20 41 22 -2 2 -66 -3 -141 -12 -76 -8
-139 -14 -141 -12 -2 2 31 14 74 28 l77 24 -55 5 -55 5 138 33 c75 19 137 36
137 38 0 5 -45 3 -230 -12 -79 -6 -64 6 38 31 73 17 104 34 54 29 -86 -9 -122
-11 -118 -6 7 7 1054 220 1081 220 15 0 13 -3 -10 -13z"/>
<path d="M305 1451 c-10 -17 -24 -155 -25 -243 0 -73 3 -89 18 -97 16 -8 17 0
18 112 0 82 6 138 16 170 15 45 15 48 -2 57 -12 6 -21 6 -25 1z"/>
<path d="M354 1383 c-5 -27 -8 -104 -8 -171 l-1 -124 60 -32 c33 -18 177 -92
320 -166 143 -73 301 -154 350 -180 147 -77 444 -230 447 -230 2 0 3 62 4 138
1 101 5 148 17 180 l17 44 -595 294 c-327 162 -596 294 -599 294 -3 0 -8 -21
-12 -47z"/>
<path d="M1566 803 c-4 -16 -10 -97 -13 -182 -5 -124 -3 -155 8 -162 8 -5 16
-9 19 -9 3 0 5 62 5 138 1 101 5 148 17 180 15 40 15 43 -2 52 -26 14 -27 13
-34 -17z"/>
</g>
</svg>
